<svg xmlns="http://www.w3.org/2000/svg" data-name="Layer 1" viewBox="0 0 95 95" x="0px" y="0px">
  <defs>
    <style>
      .cls-1 {
        fill-rule: evenodd;
        fill: #1976D2;
      }
    </style>
  </defs>
  <title>a</title>
  <path class="cls-1" d="M24.879,77.078V85.1h0v.019h0c0,2.033,4.4,3.391,9.285,4.26A90.381,90.381,0,0,0,47.31,90.6c.295,0-.209,0,.19,0s-.106.006.19,0a90.381,90.381,0,0,0,13.146-1.229c4.88-.869,9.285-2.227,9.285-4.26h0V85.1h0V77.078a18.644,18.644,0,0,1-5.549,2.383A66.444,66.444,0,0,1,47.5,81.441a66.444,66.444,0,0,1-17.072-1.98,18.644,18.644,0,0,1-5.549-2.383Zm0-11.371a18.67,18.67,0,0,0,5.549,2.383A66.488,66.488,0,0,0,47.5,70.07a66.488,66.488,0,0,0,17.072-1.98,18.67,18.67,0,0,0,5.549-2.383v8.02c0,1.266-2.349,2.552-6.137,3.608A64.332,64.332,0,0,1,47.5,79.228a64.332,64.332,0,0,1-16.484-1.893c-3.788-1.056-6.132-2.342-6.137-3.608v-8.02Zm0-11.372v8.021c0,1.266,2.349,2.552,6.137,3.607A64.288,64.288,0,0,0,47.5,67.856a64.288,64.288,0,0,0,16.484-1.893c3.788-1.055,6.132-2.341,6.137-3.607V54.335a18.669,18.669,0,0,1-5.549,2.384A66.492,66.492,0,0,1,47.5,58.7a66.492,66.492,0,0,1-17.072-1.979,18.669,18.669,0,0,1-5.549-2.384Zm0-11.371a18.669,18.669,0,0,0,5.549,2.384A66.537,66.537,0,0,0,47.5,47.327a66.537,66.537,0,0,0,17.072-1.979,18.669,18.669,0,0,0,5.549-2.384v8.021c0,1.266-2.349,2.552-6.137,3.607A64.288,64.288,0,0,1,47.5,56.485a64.288,64.288,0,0,1-16.484-1.893c-3.788-1.055-6.132-2.341-6.137-3.607V42.964Zm0-3.358v.007c0,1.267,2.349,2.552,6.137,3.608A64.332,64.332,0,0,0,47.5,45.114a64.332,64.332,0,0,0,16.484-1.893c3.788-1.056,6.132-2.341,6.137-3.608v-.007c0-1.266-2.349-2.552-6.137-3.608A64.332,64.332,0,0,0,47.5,34.1,64.332,64.332,0,0,0,31.016,36c-3.788,1.056-6.132,2.342-6.137,3.608ZM44.837,52.931h0a1.107,1.107,0,1,0,0-2.213h0a1.107,1.107,0,1,0,0,2.213Zm5.326,0h0a1.107,1.107,0,1,0,0-2.213h0a1.107,1.107,0,1,0,0,2.213ZM44.837,64.3a1.107,1.107,0,1,1,0-2.213h0a1.107,1.107,0,1,1,0,2.213Zm5.326,0a1.107,1.107,0,1,1,0-2.213h0a1.107,1.107,0,1,1,0,2.213ZM44.837,75.662h0a1.107,1.107,0,1,0,0-2.213h0a1.107,1.107,0,1,0,0,2.213Zm5.326,0h0a1.107,1.107,0,1,0,0-2.213h0a1.107,1.107,0,1,0,0,2.213ZM44.837,87.028a1.107,1.107,0,0,1,0-2.214h0a1.107,1.107,0,0,1,0,2.214Zm5.326,0a1.107,1.107,0,0,1,0-2.214h0a1.107,1.107,0,0,1,0,2.214ZM48.885,26.22A14.658,14.658,0,0,1,78.143,24.9a1.105,1.105,0,0,0,1.08,1.011,14.325,14.325,0,0,1,9.033,24.464,14.493,14.493,0,0,1-10.241,4.206H72.334v-3.6h0V39.59h0c-.017-2.375-2.98-4.386-7.762-5.718A66.488,66.488,0,0,0,47.5,31.892a66.488,66.488,0,0,0-17.072,1.98c-4.782,1.332-7.745,3.343-7.762,5.718h0V54.585h-10.2a9.963,9.963,0,0,1,0-19.925h.375a1.108,1.108,0,0,0,1.029-1.516,21.238,21.238,0,0,1-.921-3.519,21.547,21.547,0,0,1,39.09-15.741q-.214.2-.421.406a16.819,16.819,0,0,0-4.942,11.93,1.107,1.107,0,0,0,2.213,0Z"/>
</svg>